<svg width="111.47mm" height="132.99mm" version="1.2" baseProfile="tiny-ps" viewBox="0 0 111.47 132.99" xmlns="http://www.w3.org/2000/svg">
 <title>Rumpf Family Crest</title>
 <g transform="translate(-39.69 -78.145)">
  <path d="m91.206 208.07c-5.058-4.1942-11.67-10.69-15.952-15.672-16.273-18.932-27.886-44.058-32.24-69.756-2.4296-14.342-3.3242-24.058-3.3242-36.104 0-7.2978 0.07054-8.3961 0.53925-8.3961 0.29658 0 2.4794 0.3927 4.8507 0.87266 12.466 2.5231 22.361 3.1291 51.055 3.1266 28.794-2e-3 36.478-0.47109 48.814-2.9767 2.8852-0.58604 5.4871-0.97294 5.782-0.85976 0.47081 0.18067 0.51115 1.6574 0.33062 12.104-0.19542 11.309-0.54453 16.255-1.8234 25.833-0.78144 5.8528-2.2092 13.741-3.2246 17.815-6.3629 25.532-21.265 50.715-40.354 68.192-3.6745 3.3643-10.286 8.8946-10.624 8.8866-0.07484-2e-3 -1.7981-1.3814-3.8294-3.0658zm10.821-8.5282c11.44-10.561 22.266-25.003 29.376-39.187 6.008-11.985 10.307-24.804 12.35-36.828 1.0589-6.2301 0.99317-6.5795-1.237-6.5795-0.72397 0-0.86168 0.21667-1.0651 1.6757-3.2558 23.355-14.803 48.35-31.168 67.469-3.0665 3.5823-11.292 11.881-13.349 13.468-2.1402 1.6511-1.5459 1.8626-6.017-2.1414-8.4733-7.588-18.538-20.517-25.089-32.229-4.9254-8.8061-7.0893-14.332-7.0893-18.105 0-2.3376 1.1507-6.8019 2.4468-9.4923l1.0235-2.1247 0.08804 5.6444 1.5138-3.0272c0.8326-1.665 2.1081-3.9225 2.8344-5.0168 1.2875-1.9398 4.8789-5.538 5.5274-5.538 0.41446 0 0.43523-0.11627-0.34662 1.9408-0.36883 0.9704-0.77111 2.5579-0.89396 3.5278l-0.22335 1.7634 1.0337-1.9403c1.3614-2.5555 3.6837-5.1519 5.3837-6.0191 1.5638-0.79779 1.6587-0.69531 0.63658 0.68721-0.64816 0.87668-2.2609 5.9849-1.9786 6.2672 0.06038 0.0604 0.8933-0.87326 1.8509-2.0748 1.618-2.03 4.8514-4.5109 5.2976-4.0647 0.10733 0.10733-0.19432 0.965-0.67034 1.9059-1.322 2.613-2.2559 6.0019-2.5136 9.1208l-0.23304 2.8206 1.3804-2.5481c1.6634-3.0705 2.7757-4.5645 4.9502-6.6488 1.6914-1.6213 4.1802-3.0832 4.7009-2.7614 0.16186 0.10003 0.29429 1.112 0.29429 2.2489 0 3.167 0.2607 3.4664 1.4229 1.6337 2.2939-3.6171 6.3381-6.8742 10.182-8.2007 1.1344-0.39144 1.9708-0.90642 2.0696-1.2743 0.21444-0.79838 2.3149-0.83043 3.7877-0.0578 0.71261 0.37385 1.5032 0.485 2.42 0.34023 1.7835-0.2816 4.1064-1.0128 4.1064-1.2926 0-0.33136-2.7808-1.0007-4.5861-1.1039l-1.5875-0.0908 2.0947-0.81357c1.4886-0.57818 2.467-0.75067 3.3816-0.59615 1.2795 0.21618 1.286 0.21102 1.1227-0.90121-0.18302-1.247 0.28365-1.7288 1.6913-1.746 0.48507-6e-3 1.1044-0.15165 1.3763-0.32379 0.74223-0.46993-1.8405-1.6688-4.6487-2.1578-1.4872-0.25899-3.1037-0.86663-4.5093-1.6951-2.7377-1.6136-6.6964-5.8253-8.7988-9.3611-0.87312-1.4684-1.731-2.6744-1.9064-2.6799-0.44882-0.0142-4.2658 2.1225-9.0297 5.0548-7.9612 4.9003-16.52 12.022-20.99 17.467-3.7153 4.5251-1.5608-0.11907 2.761-5.9515 6.4971-8.768 16.114-16.632 25.243-20.642 2.3435-1.0293 3.0143-1.2002 3.2343-0.8237 0.15265 0.26125 0.80349 1.3174 1.4463 2.347l1.1688 1.872 0.49993-1.5192c0.7253-2.2041 2.3939-4.4729 3.7733-5.1307 0.65958-0.31453 1.269-0.50205 1.3544-0.41671 0.0853 0.0853-0.48077 1.4347-1.258 2.9987-1.4932 3.0046-2.2241 6.8441-1.3998 7.3535 0.21994 0.13593 0.47268 0.0386 0.56166-0.21619 1.7728-5.0775 3.6284-8.0814 7.5726-12.259 1.3623-1.443 2.4317-2.6688 2.3764-2.7241-0.16857-0.16857-11.841 2.9486-15.339 4.0964-15.644 5.133-30.988 18.997-38.514 34.798-2.8368 5.9566-4.5699 12.453-4.603 17.253-0.0081 1.1787-0.11436 1.5883-0.32023 1.2347-1.2384-2.1271-5.3003-16.568-6.4156-22.809l-0.45108-2.524-1.2526 0.18873c-0.68892 0.10381-1.3857 0.30913-1.5484 0.45627-0.33458 0.30257 0.38745 4.1791 1.9289 10.356 5.0319 20.164 14.097 38.669 26.721 54.548 3.215 4.044 11.725 12.82 16.096 16.601l3.175 2.7456 1.2347-1.1369c0.6791-0.62532 3.1724-2.9258 5.5406-5.1121zm6.7788-24.077c-0.6513-6.3892 0.0357-15.538 1.6524-22.005 1.3328-5.3311 4.5943-14.09 7.0546-18.945 0.9889-1.9515 1.0048-2.0453 0.34697-2.0453-0.75305 0-3.8917 4.1388-5.6613 7.4652-1.7458 3.2818-4.095 10.007-4.9095 14.054-1.326 6.5893-1.5567 14.339-0.56519 18.982 0.43031 2.0151 2.1361 6.8617 2.3424 6.6554 0.0818-0.0818-0.0354-1.9547-0.26037-4.162zm-11.612-6.7847c-2.8064-8.3318-3.9158-18.377-2.6938-24.392 0.83007-4.086 2.8864-8.0249 5.841-11.189 2.3695-2.5372 6.3139-5.5128 8.3177-6.2746 1.5918-0.60521 0.76559-0.77891-1.6411-0.34498-3.2238 0.58125-6.0623 2.222-9.1498 5.2889-4.0587 4.0316-6.0548 8.6045-6.5475 15-0.39659 5.1474 1.0374 13.545 3.2381 18.962 0.89969 2.2147 3.7229 7.3946 3.9218 7.1957 0.05917-0.0592-0.51969-1.9699-1.2864-4.2461zm2.6956-20.336c1.3162-4.3741 3.5286-8.63 5.6729-10.913 1.7778-1.8926 1.839-1.9253 1.6924-0.90531-0.49058 3.4114-0.52076 4.0569-0.1897 4.0569 0.19632 0 0.35972-0.19843 0.36311-0.44097 6e-3 -0.435 2.3579-3.5778 5.1091-6.8274 1.081-1.2768 1.2873-1.7078 0.88194-1.842-0.29104-0.0964-1.061-0.70533-1.711-1.3532-0.65-0.64791-1.3505-1.178-1.5566-1.178-0.20614 0-1.124 0.48075-2.0397 1.0684-3.7179 2.3858-7.2247 7.2506-9.0205 12.514-0.82832 2.4277-0.97714 3.488-1.0645 7.5847-0.11447 5.3673-0.35071 5.5911 1.8625-1.7639zm21.129-21.176c0.67114-0.41479 1.2202-0.89674 1.2202-1.071 0-0.43979-2.8802-1.9035-3.5278-1.7928-1.1519 0.19695-5.2917 1.8937-5.2917 2.1688 0 0.25347 0.55696 0.49839 3.5278 1.5513 0.91506 0.32432 2.8038-0.073 4.0714-0.85637zm2.1302-3.607c-0.0239-0.67729 0.15314-0.79375 1.2067-0.79375 1.7031 0 1.737-0.55412 0.0741-1.2132-0.76406-0.30285-1.6503-0.76963-1.9694-1.0373-0.50097-0.42023-2.8134-0.39033-3.2457 0.042-0.0631 0.0631 0.0554 0.78473 0.26329 1.6037 0.31178 1.2283 0.57112 1.545 1.4813 1.8089 1.8246 0.52893 2.2202 0.4548 2.1897-0.41027zm0.50116-5.2691c0-0.46215-1.501-0.20566-1.662 0.284-0.0819 0.2491 0.20071 0.33154 0.76612 0.22346 0.49276-0.0942 0.89593-0.32256 0.89593-0.50746zm9.934-2.1645c8.4832-5.1862 11.901-7.3556 12.217-7.7536 0.18471-0.2327 0.41756-2.844 0.51745-5.803l0.18161-5.3799h-1.5063c-1.8758 0-1.93 0.16062-1.9365 5.7326-4e-3 3.711 0.0599 4.1461 0.61254 4.1542 0.33955 5e-3 -0.097 0.37887-0.97013 0.83084-2.9505 1.5273-15.376 9.2115-15.47 9.567-0.0923 0.34851 0.98485 0.77852 2.1211 0.84678 0.32194 0.0193 2.2269-0.96843 4.2333-2.195zm-6.1584-2.5788c4.6722-3.4349 5.776-4.4543 5.3186-4.9117-0.0909-0.0909-2.2139 1.1324-4.7179 2.7184-6.9816 4.4221-8.6278 5.944-6.4296 5.944 0.39998 0 3.023-1.6878 5.8289-3.7507z" stroke-width=".35278"/>
 </g>
</svg>
